<svg width="15.677368" height="13.673859" viewBox="0 0 15.6774 13.6739" fill="none" xmlns="http://www.w3.org/2000/svg" xmlns:xlink="http://www.w3.org/1999/xlink">
	<desc>
			Created with Pixso.
	</desc>
	<defs/>
	<path id="Vector" d="M13.13 0.314178C12.6294 0.10675 12.0928 0 11.551 0C11.0092 0 10.4725 0.10675 9.97192 0.314178C9.47131 0.521606 9.01648 0.825623 8.63342 1.20886L7.8385 2.00388L7.04346 1.20886C6.26965 0.435089 5.22021 0.000396729 4.12598 0.000396729C3.03174 0.000396729 1.98218 0.435089 1.2085 1.20886C0.434692 1.98264 0 3.0321 0 4.12637C0 5.22064 0.434692 6.27011 1.2085 7.04385L2.00342 7.83887L7.8385 13.6739L13.6735 7.83887L14.4685 7.04385C14.8517 6.6608 15.1558 6.20599 15.3632 5.70538C15.5706 5.2048 15.6774 4.66824 15.6774 4.12637C15.6774 3.5845 15.5706 3.04794 15.3632 2.54736C15.1558 2.04675 14.8517 1.59195 14.4685 1.20886C14.0854 0.825623 13.6306 0.521606 13.13 0.314178Z" stroke="#FFFFFF" stroke-opacity="0" stroke-width="1.500000" stroke-linejoin="round"/>
</svg>
